<?xml version="1.0" encoding="utf-8"?>
<svg version="1.1" id="Layer_1" xmlns="http://www.w3.org/2000/svg" xmlns:xlink="http://www.w3.org/1999/xlink" x="0px" y="0px"
	 viewBox="0 0 866.2 300" style="enable-background:new 0 0 866.2 300;" xml:space="preserve">
<style type="text/css">
	.st0{fill:#FFFFFF;}
</style>
<g id="layer101_1_">
	<path class="st0" d="M301.3,299.2l-3-0.7l-0.3-9.9c-0.3-11.4-0.2-11.6,7.3-11.6c12.8,0,19-5.1,24.4-19.7l3.3-9.1l-21.1-58.6
		c-18.4-51.1-21-58.9-19.9-60.6c1.2-1.9,2.2-2,13.7-1.8l12.4,0.3l13.7,41l13.7,41l5-15.5c2.7-8.5,8.5-27.1,12.9-41.2l7.9-25.8h12.2
		c11.2,0,12.3,0.2,13.3,2c0.9,1.7-3.2,14.5-23.5,72.8c-13.6,38.9-26.1,73.4-27.8,76.7c-4,7.5-11.8,15.4-18.2,18.6
		c-4,1.9-6.7,2.4-14,2.6C308.4,299.8,303,299.5,301.3,299.2z"/>
	<path class="st0" d="M698.6,297.3c1.1-1.6,9.3-11.3,18.2-21.8c9-10.4,20.4-24.2,25.5-30.5c5-6.3,13.1-16,17.9-21.5
		c11.9-13.7,15-18.5,13.3-20.3c-2.5-2.4-8.9-3.2-26.2-3.2c-15.8,0-55.4,3.2-57.8,4.7c-0.6,0.4-0.7,0.1-0.2-0.6
		c2.3-3.8,21.8-14.1,26.5-14.1c1.1,0,2-0.4,2-1c0-0.5-1.1-1-2.4-1c-1.4,0-6.2-1.2-10.8-2.6c-12.5-3.9-27.3-11.6-19.3-10
		c22.1,4.4,55.6,5.1,72.5,1.7c18.2-3.8,23.6-7.7,30.3-21.8c3-6.4,3.2-7.5,3.1-17.3c-0.2-28.1-16-80.1-37.1-122.4
		c-4.1-8.1-7.2-15.1-6.8-15.4c2-2,18.6,10.7,33.6,25.8c27.9,28.2,51,68.2,61.5,106.6c2.4,8.9,2.5,10.5,1.6,15.7
		c-0.9,4.6-3.8,12.2-6.9,17.8c-0.2,0.3,3.3,1.1,7.7,1.7c8.6,1.2,11.9,2.6,16.9,6.8c5.2,4.3,5.6,6,2.4,9c-5.2,4.8-16,9.4-28.7,12.1
		c-3.4,0.7-4,1.3-5.6,5.5c-3.4,9-13.1,21.9-26.5,35.4c-15.5,15.6-48.6,43.3-59.4,49.7c-13.7,8.2-30.9,13.7-42.6,13.7h-4.6
		L698.6,297.3z"/>
	<path class="st0" d="M34.6,252.4c-18.1-4.3-32.1-18.5-34.3-34.5c-1-7.5-0.4-7.9,13.5-7.9h11.7l0.7,4.1c0.9,5.7,3,9.3,7.1,12.4
		c10.1,7.7,29.5,7.2,37.4-0.9c2.9-3,3.4-4.3,3.4-8.1c0-9-5.3-12.6-26.3-17.9c-23.7-6-33.6-11.3-39.7-21.5c-9.9-16.5-1.5-38.7,18-48
		c8.7-4.1,16.9-5.5,29-4.8c24.2,1.3,40.1,13.4,43.8,33.1c0.9,5,0.8,6-0.7,7.7c-1.5,1.6-3.2,1.9-11.9,1.9c-8.6,0-10.4-0.3-11.8-1.8
		c-1-1-1.7-2.7-1.7-3.8c0-5.4-7.6-12.2-15.9-14.4c-8.4-2.2-20.8,0.9-24.5,6.2c-4.5,6.3-2.3,14.3,4.8,17.8c2.3,1.1,10.4,3.6,17.9,5.5
		c16.6,4.3,25.9,8,32.6,12.9c12.9,9.5,16.5,25.8,9,41.3c-4.8,10.1-14.6,17.2-28.4,20.8C60.9,254.4,42.5,254.4,34.6,252.4z"/>
	<path class="st0" d="M528.4,252.5c-9.6-3.4-15.9-12.6-17.6-25.5c-0.5-4.1-1-23.6-1-43.2v-35.7l-10.2-0.3l-10.3-0.3l-0.3-8.8
		c-0.2-5.7,0.1-9.4,0.9-10.3c0.8-1,3.7-1.4,10.5-1.4h9.4v-12.8c0-16.4-0.2-16.2,13.7-16.2c13.4,0,13.3-0.2,13.3,16.3V127h9.4
		c12.1,0,12.6,0.4,12.6,10.9c0,4.6-0.5,8.2-1.2,8.9c-0.8,0.8-4.7,1.2-11,1.2h-9.8v39v39.1l2.6,2.6c2.4,2.4,3,2.5,9.9,2.1
		c4.5-0.3,7.8-0.1,8.5,0.6c0.5,0.5,1,5.3,1,10.7v9.7l-5,1.1C546.8,254.4,533.1,254.2,528.4,252.5z"/>
	<path class="st0" d="M151.4,249.8c-0.3-1.3-8.2-28.6-17.5-60.8c-15.9-54.5-16.9-58.5-15.4-60.2c1.4-1.5,3.3-1.8,12.7-1.8h11.2
		l3.7,14.3c2,7.8,5.7,21.9,8.2,31.2c2.5,9.4,5.5,20.9,6.7,25.8c1.2,4.8,2.5,8.7,2.8,8.7c0.6,0,9.9-29.3,21.8-68.3l3.6-11.8l10.5,0.3
		l10.4,0.3l1.8,5.5c1,3,6.6,21,12.5,40c5.8,19,10.9,34.8,11.3,35.2c0.4,0.5,5.4-17.7,11.1-40.2l10.3-41h11.2c11.3,0,13.5,0.7,13.5,4
		c0,0.8-7.8,28.3-17.3,61l-17.4,59.5l-10.5,0.3l-10.5,0.3l-5.6-17.3c-3-9.5-9-28-13.2-41.1c-4.2-13.2-8-23.6-8.3-23.2
		c-0.4,0.4-6.3,18.7-13.2,40.8l-12.6,40.2l-10.6,0.3C152.3,252.1,152,252,151.4,249.8z"/>
	<path class="st0" d="M429.3,250.8c-0.3-0.7-0.6-24-0.8-51.8l-0.2-50.5l-9-0.5l-9-0.5l-0.3-8.8c-0.2-5.6,0.1-9.4,0.8-10.3
		c0.8-0.9,4-1.4,9.3-1.6l8.2-0.3l0.6-11.5c1-19.1,6.9-29.4,20.7-36.2c6.5-3.2,7-3.3,19.7-3.3c7.1,0,14.2,0.3,15.6,0.7
		c2.5,0.7,2.5,0.8,2.1,9.5c-0.6,11.8-1.1,12.3-12.1,12.3c-10.9,0-14.7,1.7-17.8,8c-1.8,3.5-2.3,6.1-2.3,12.7v8.3h11.3
		c7.5,0,11.7,0.4,12.5,1.2c1.6,1.6,1.6,17,0,18.6c-0.8,0.8-5,1.2-12.5,1.2h-11.3v50.3c0,47.5-0.1,50.5-1.8,52
		c-1.5,1.4-4,1.7-12.6,1.7C432.8,252,429.6,251.6,429.3,250.8z"/>
	<path class="st0" d="M573.7,249.9c-1-1.9,1.2-5.5,18.5-31.5l19.6-29.4l-19.1-28.6c-23.4-35.2-23.2-33.4-3.9-33.4h12.7l11.9,20
		c6.6,11,12.2,19.8,12.6,19.7c0.4-0.1,6.1-9,12.6-19.7l11.8-19.5l13-0.3c12.7-0.2,13.1-0.2,14.1,2c1.1,2.4,2.9-0.5-27.8,45.9
		l-9,13.7l19.4,29.2c24,35.9,23.7,34,4.6,34H652l-12.7-20.5c-7-11.3-13-20.5-13.3-20.5c-0.4,0-6.3,9.3-13.2,20.5L600.3,252h-12.7
		C575.7,252,574.8,251.9,573.7,249.9z"/>
</g>
</svg>
